#!OML:ASF F:\VICON\USERDATA\INSTALL\rory3\rory3.ASF
:FULLY-SPECIFIED
:DEGREES
785
root -1.11315 28.8689 -5.71148 6.1436 2.77552 3.93594
lowerback 4.43617 0.363111 -5.12628
upperback 0.761848 0.256408 0.771994
thorax -1.72911 0.158744 3.66084
lowerneck -14.439 1.21117 -9.24424
upperneck 41.6239 5.32045 -0.0345781
head 17.658 0.720848 2.63044
rclavicle -6.95746e-015 8.74653e-015
rhumerus -31.4516 -8.46935 -78.7616
rradius 34.7322
rwrist 18.2438
rhand -18.9726 0.651572
rfingers 7.12502
rthumb 7.33162 -29.2014
lclavicle -6.95746e-015 8.74653e-015
lhumerus -33.6143 11.1495 80.156
lradius 30.9431
lwrist -5.60792
lhand -8.20738 27.8506
lfingers 7.12502
lthumb 17.7093 57.0642
rfemur -18.1145 -0.3016 17.3675
rtibia 47.0794
rfoot -22.0476 -1.4047
rtoes -1.63651
lfemur -17.4628 -0.0066349 -26.7447
ltibia 28.7775
lfoot -14.3277 -4.22381
ltoes -1.86037
786
root -1.09189 28.8567 -5.68299 5.95929 2.91537 4.03719
lowerback 4.62446 0.306317 -5.17569
upperback 0.787994 0.167318 0.709087
thorax -1.79846 0.115746 3.62876
lowerneck -14.3566 1.24857 -9.22372
upperneck 41.628 5.36062 -0.0360959
head 17.6362 0.741202 2.63095
rclavicle -9.74045e-015 8.34896e-015
rhumerus -31.4208 -8.5223 -78.7405
rradius 34.4765
rwrist 18.6207
rhand -19.3365 0.836049
rfingers 7.12502
rthumb 6.98033 -29.0289
lclavicle -9.74045e-015 8.34896e-015
lhumerus -33.6394 11.1897 80.0311
lradius 31.0352
lwrist -5.67369
lhand -7.97636 28.0602
lfingers 7.12502
lthumb 17.9316 57.2535
rfemur -18.6193 -0.571787 17.0704
rtibia 48.7135
rfoot -21.3408 -0.997235
rtoes -1.86696
lfemur -17.1795 -0.120854 -26.9542
ltibia 28.8465
lfoot -14.4233 -4.15979
ltoes -1.47276
787
root -1.07193 28.8411 -5.65949 5.67554 3.1493 4.17844
lowerback 4.9585 0.246335 -5.25463
upperback 0.861136 0.0648853 0.639998
thorax -1.89953 0.0661863 3.60836
lowerneck -14.3052 1.24406 -9.20626
upperneck 41.6128 5.31964 0.00841247
head 17.6132 0.735332 2.63925
rclavicle 1.49089e-015 -3.57812e-015
rhumerus -31.3335 -8.64897 -78.6779
rradius 34.1953
rwrist 18.9704
rhand -19.5375 1.05933
rfingers 7.12502
rthumb 6.7863 -28.8119
lclavicle 1.49089e-015 -3.57812e-015
lhumerus -33.5174 11.0985 79.9792
lradius 31.0324
lwrist -5.65596
lhand -7.86637 28.4566
lfingers 7.12502
lthumb 18.0374 57.6403
rfemur -19.0708 -0.883369 16.7384
rtibia 50.4024
rfoot -20.3493 -1.01745
rtoes -2.30455
lfemur -16.8049 -0.364625 -27.1883
ltibia 28.9567
lfoot -14.4927 -4.07263
ltoes -1.56688
788
root -1.05181 28.8271 -5.63516 5.57196 3.32805 4.35329
lowerback 5.06521 0.191558 -5.38561
upperback 0.894693 -0.0216263 0.578882
thorax -1.91571 0.0234475 3.6247
lowerneck -14.2156 1.22078 -9.19012
upperneck 41.6376 5.2732 -0.00557836
head 17.6085 0.71711 2.62014
rclavicle -5.46658e-015 -1.07344e-014
rhumerus -31.3047 -8.82999 -78.5694
rradius 34.0704
rwrist 19.1931
rhand -19.4869 1.13263
rfingers 7.12502
rthumb 6.83518 -28.737
lclavicle -5.46658e-015 -1.07344e-014
lhumerus -33.3703 11.0778 79.9086
lradius 30.8929
lwrist -5.69162
lhand -7.97113 28.4834
lfingers 7.12502
lthumb 17.9366 57.6762
rfemur -19.8127 -1.14744 16.3554
rtibia 52.1312
rfoot -19.2858 -0.995971
rtoes -3.47791
lfemur -16.6334 -0.560592 -27.4642
ltibia 29.0781
lfoot -14.605 -4.02166
ltoes -1.77791
789
root -1.03006 28.8175 -5.60609 5.53906 3.33802 4.55426
lowerback 5.01185 0.202274 -5.51683
upperback 0.936356 -0.0115979 0.502769
thorax -1.84371 0.0261385 3.61881
lowerneck -14.1603 1.16994 -9.32724
upperneck 41.6625 5.21233 0.0515486
head 17.6072 0.678689 2.65897
rclavicle 5.86415e-015 -1.35174e-014
rhumerus -31.2252 -9.1926 -78.4053
rradius 33.9279
rwrist 19.4386
rhand -19.2976 0.953348
rfingers 7.12502
rthumb 7.01792 -28.9103
lclavicle 5.86415e-015 -1.35174e-014
lhumerus -33.2012 11.0535 79.8784
lradius 30.7352
lwrist -5.69048
lhand -8.21227 28.0185
lfingers 7.12502
lthumb 17.7046 57.2325
rfemur -20.7043 -1.26078 15.898
rtibia 53.8649
rfoot -18.0812 -0.838931
rtoes -4.28982
lfemur -16.5182 -0.70193 -27.7873
ltibia 29.1796
lfoot -14.7036 -3.86677
ltoes -1.77235
790
root -1.0089 28.8081 -5.57774 5.46654 3.32804 4.72447
lowerback 5.06854 0.204215 -5.65949
upperback 0.948962 -0.0204939 0.467464
thorax -1.86135 0.0226659 3.66329
lowerneck -14.0959 1.17477 -9.44246
upperneck 41.726 5.24694 0.0734635
head 17.6223 0.675422 2.69534
rclavicle 9.24349e-015 -1.78906e-014
rhumerus -31.1477 -9.43526 -78.2382
rradius 33.7278
rwrist 19.5236
rhand -19.1145 0.860381
rfingers 7.12502
rthumb 7.19459 -28.9973
lclavicle 9.24349e-015 -1.78906e-014
lhumerus -33.1524 11.1605 79.8774
lradius 30.702
lwrist -5.75605
lhand -8.40539 27.7331
lfingers 7.12502
lthumb 17.5187 56.9638
rfemur -21.6068 -1.27773 15.4705
rtibia 55.5784
rfoot -16.6224 -0.770734
rtoes -4.11255
lfemur -16.3405 -0.874702 -28.0792
ltibia 29.2592
lfoot -14.7528 -3.59165
ltoes -1.90297
791
root -0.988504 28.8001 -5.54802 5.24707 3.50276 4.75013
lowerback 5.30084 0.105536 -5.63862
upperback 0.934028 -0.166559 0.428329
thorax -1.99165 -0.0462621 3.62165
lowerneck -13.9411 1.25306 -9.25131
upperneck 41.8771 5.34193 -0.0405436
head 17.6743 0.721242 2.62594
rclavicle -9.83984e-015 -3.97569e-016
rhumerus -31.2157 -9.38743 -78.254
rradius 33.5529
rwrist 19.3836
rhand -19.0989 0.75487
rfingers 7.12502
rthumb 7.20968 -29.1023
lclavicle -9.83984e-015 -3.97569e-016
lhumerus -33.2518 11.2089 79.7036
lradius 30.687
lwrist -5.76038
lhand -8.56217 27.6734
lfingers 7.12502
lthumb 17.3679 56.9175
rfemur -22.3024 -1.4713 15.2342
rtibia 57.2452
rfoot -15.2026 -0.852491
rtoes -4.18085
lfemur -15.9809 -1.09097 -28.186
ltibia 29.3327
lfoot -14.8535 -3.49214
ltoes -1.91943
